<svg width="36" height="36" viewBox="0 0 36 36" fill="none" xmlns="http://www.w3.org/2000/svg">
<path d="M23.687 3.00138C24.2551 3.03692 24.6934 3.52385 24.6783 4.10261V5.65495C29.1913 6.09279 31.5 8.58715 31.5 13.0717V25.4771C31.5 30.4658 28.6565 33 23.0609 33H12.9391C7.34348 33 4.5 30.4658 4.5 25.4771V13.0717C4.5 10.0864 5.51739 7.95029 7.60435 6.70311L7.75074 6.61968C8.05327 6.47848 8.4081 6.49142 8.70302 6.66264C9.04711 6.8624 9.2503 7.24314 9.22754 7.64547C9.20478 8.0478 8.95999 8.40232 8.59565 8.56061C7.21304 9.38322 6.56087 10.8161 6.56087 13.0717V13.4697H25.5913C26.1604 13.4697 26.6217 13.939 26.6217 14.5179C26.6217 15.0968 26.1604 15.566 25.5913 15.566H6.56087V25.4771C6.56087 29.285 8.41304 30.8639 12.9391 30.8904H23.0609C27.5217 30.8904 29.4261 29.2717 29.4261 25.4639V13.0584C29.4261 9.74145 27.9783 8.13604 24.6783 7.75127V8.75963C24.6022 9.29709 24.1395 9.68946 23.6061 9.66898C23.0726 9.6485 22.6404 9.22179 22.6043 8.68002V4.00974L22.6234 3.84383C22.6659 3.62643 22.7754 3.42674 22.9382 3.27512C23.1417 3.08559 23.4114 2.98698 23.687 3.00138ZM24.2805 24.2955L24.4466 24.3062C24.7314 24.3419 24.9985 24.4725 25.2047 24.6802C25.4521 24.9294 25.5913 25.2689 25.5913 25.6231C25.5913 26.3558 25.0073 26.9499 24.287 26.9499C23.5666 26.9499 22.9826 26.3558 22.9826 25.6231C22.9826 24.8903 23.5666 24.2963 24.287 24.2963L24.2805 24.2955ZM18.0261 24.2963L18.1897 24.3066C18.8328 24.3885 19.3304 24.9467 19.3304 25.6231C19.3304 26.3558 18.7465 26.9499 18.0261 26.9499C17.3057 26.9499 16.7217 26.3558 16.7217 25.6231C16.7217 24.8903 17.3057 24.2963 18.0261 24.2963ZM11.772 24.2955L11.9379 24.3062C12.2227 24.3419 12.4898 24.4725 12.696 24.6802C12.9434 24.9294 13.0826 25.2689 13.0826 25.6231C13.0826 26.3558 12.4986 26.9499 11.7783 26.9499C11.0579 26.9499 10.4739 26.3558 10.4739 25.6231C10.4739 24.8903 11.0579 24.2963 11.7783 24.2963L11.772 24.2955ZM24.2805 18.9225L24.4466 18.9327C24.7314 18.9684 24.9985 19.099 25.2047 19.3067C25.4521 19.5559 25.5913 19.8954 25.5913 20.2496C25.5913 20.9824 25.0073 21.5764 24.287 21.5764C23.5666 21.5764 22.9826 20.9824 22.9826 20.2496C22.9826 19.5168 23.5666 18.9228 24.287 18.9228L24.2805 18.9225ZM18.0261 18.9228L18.1897 18.9331C18.8328 19.015 19.3304 19.5732 19.3304 20.2496C19.3304 20.9824 18.7465 21.5764 18.0261 21.5764C17.3057 21.5764 16.7217 20.9824 16.7217 20.2496C16.7217 19.5168 17.3057 18.9228 18.0261 18.9228ZM11.772 18.9225L11.9379 18.9327C12.2227 18.9684 12.4898 19.099 12.696 19.3067C12.9434 19.5559 13.0826 19.8954 13.0826 20.2496C13.0826 20.9824 12.4986 21.5764 11.7783 21.5764C11.0579 21.5764 10.4739 20.9824 10.4739 20.2496C10.4739 19.5168 11.0579 18.9228 11.7783 18.9228L11.772 18.9225ZM12.3587 3.15967C12.8899 3.15967 13.3364 3.56563 13.3957 4.10261V5.54881H19.2913C19.8604 5.54881 20.3217 6.01809 20.3217 6.59697C20.3217 7.17585 19.8604 7.64513 19.2913 7.64513H13.3696V8.69329C13.3696 8.97359 13.2592 9.24223 13.0632 9.43918C12.8671 9.63614 12.6016 9.745 12.3261 9.74145L12.1754 9.7264C11.6845 9.64012 11.3151 9.20168 11.3217 8.68002V4.10261L11.3508 3.94572C11.4712 3.4885 11.8806 3.15967 12.3587 3.15967Z" fill="#446DF6"/>
</svg>
