<svg width="28" height="30" viewBox="0 0 28 30" fill="none" xmlns="http://www.w3.org/2000/svg">
<path d="M19.7801 0C24.6001 0 27.4869 2.92715 27.5 7.81457V22.1854C27.5 27.0728 24.6263 30 19.7932 30H15.5087C14.9592 29.9386 14.5434 29.4678 14.5434 28.9073C14.5434 28.3468 14.9592 27.876 15.5087 27.8146H19.7801C23.4637 27.8146 25.3186 25.9205 25.3186 22.1854V7.81457C25.3186 4.07947 23.4637 2.18543 19.7801 2.18543H8.20682C4.52322 2.18543 2.6553 4.07947 2.6553 7.81457V22.1854C2.6553 25.9205 4.52322 27.8146 8.20682 27.8146C8.75628 27.876 9.17218 28.3468 9.17218 28.9073C9.17218 29.4678 8.75628 29.9386 8.20682 30C3.38679 30 0.5 27.0728 0.5 22.1854V7.81457C0.5 2.91391 3.38679 0 8.20682 0H19.7801ZM19.3882 20.2649C19.9798 20.2649 20.4594 20.7512 20.4594 21.351C20.4594 21.9508 19.9798 22.4371 19.3882 22.4371H8.57257C7.98101 22.4371 7.50145 21.9508 7.50145 21.351C7.50145 20.7512 7.98101 20.2649 8.57257 20.2649H19.3882ZM19.3882 13.9073C19.8016 13.8611 20.2046 14.0587 20.4255 14.4159C20.6465 14.7731 20.6465 15.2269 20.4255 15.5841C20.2046 15.9413 19.8016 16.1389 19.3882 16.0927H8.57257C8.02311 16.0313 7.60721 15.5605 7.60721 15C7.60721 14.4395 8.02311 13.9687 8.57257 13.9073H19.3882ZM12.7003 7.56291C13.2498 7.62435 13.6656 8.09511 13.6656 8.65563C13.6656 9.21615 13.2498 9.68691 12.7003 9.74834H8.58563C8.03617 9.68691 7.62028 9.21615 7.62028 8.65563C7.62028 8.09511 8.03617 7.62435 8.58563 7.56291H12.7003Z" fill="#446DF6"/>
</svg>
