<svg width="36" height="36" viewBox="0 0 36 36" fill="none" xmlns="http://www.w3.org/2000/svg">
<path d="M26.2469 32.8791C26.0624 32.8836 25.8794 32.8371 25.7189 32.7441L18.0119 28.6851L11.2259 32.3391C10.1189 32.9391 8.73287 32.5281 8.13287 31.4196C8.12537 31.4061 8.11787 31.3926 8.11037 31.3776C7.87487 30.9141 7.79237 30.3906 7.87337 29.8776L9.19337 22.0866L3.67637 16.5006C2.77487 15.5706 2.77487 14.0916 3.67637 13.1601C4.02737 12.7911 4.49237 12.5526 4.99637 12.4836L12.5609 11.3346L15.9254 4.32507C16.4489 3.18507 17.7974 2.68407 18.9389 3.20757C19.4339 3.43407 19.8299 3.83157 20.0564 4.32507L23.4359 11.3586L31.0259 12.5211C31.6394 12.6126 32.1899 12.9516 32.5499 13.4571C33.2219 14.4231 33.1199 15.7281 32.3069 16.5786L26.8154 22.0986L27.5804 26.2971C27.6869 26.9271 27.2714 27.5286 26.6429 27.6471C26.0249 27.7581 25.4339 27.3471 25.3229 26.7276L24.5444 22.5291C24.4139 21.7596 24.6584 20.9736 25.2044 20.4171L30.7094 14.8581L23.1194 13.6806C22.3499 13.5561 21.6974 13.0461 21.3899 12.3306L18.0119 5.32707L14.5919 12.4416C14.2844 13.1586 13.6319 13.6671 12.8624 13.7916L5.29787 14.9406L10.7624 20.4906C11.3069 21.0381 11.5514 21.8136 11.4224 22.5741L10.1024 30.3651L16.8869 26.7261C17.5589 26.3481 18.3794 26.3481 19.0514 26.7261L26.7479 30.7851C27.2174 31.0416 27.4559 31.5831 27.3284 32.1036C27.2114 32.6241 26.7524 32.9946 26.2199 33.0036L26.2469 32.8791Z" fill="#446DF6"/>
</svg>
